<?xml version="1.0" standalone="no"?>
<!DOCTYPE svg PUBLIC "-//W3C//DTD SVG 20010904//EN"
 "http://www.w3.org/TR/2001/REC-SVG-20010904/DTD/svg10.dtd">
<svg version="1.0" xmlns="http://www.w3.org/2000/svg"
 width="224.000000pt" height="225.000000pt" viewBox="0 0 224.000000 225.000000"
 preserveAspectRatio="xMidYMid meet">

<g transform="translate(0.000000,225.000000) scale(0.100000,-0.100000)"
fill="#000000" stroke="none">
<path d="M1498 2237 c-64 -18 -135 -67 -248 -171 -138 -127 -237 -176 -454
-225 l-90 -20 -65 39 c-143 85 -333 145 -435 138 -51 -4 -63 -9 -87 -36 -40
-45 -53 -101 -45 -207 10 -134 42 -284 92 -431 24 -73 44 -145 44 -162 0 -22
-16 -49 -60 -101 -114 -137 -145 -226 -144 -421 1 -111 6 -161 32 -284 18 -83
38 -153 44 -157 7 -5 13 -7 14 -6 1 1 -9 43 -21 93 -92 362 -42 659 123 730
158 68 442 -124 468 -317 18 -131 -78 -244 -206 -243 -94 1 -176 58 -226 155
-24 48 -54 66 -54 32 1 -32 36 -97 74 -136 62 -62 107 -79 231 -87 61 -4 126
-14 145 -22 19 -8 71 -48 114 -87 96 -87 111 -95 221 -121 95 -22 131 -38 159
-69 16 -18 17 -26 8 -63 -8 -32 -8 -44 1 -50 20 -13 22 -10 45 67 20 66 30 83
86 140 105 107 242 156 351 125 94 -26 185 -143 185 -237 0 -44 14 -55 38 -31
35 35 -13 170 -88 251 l-40 45 76 133 c101 178 118 199 154 199 36 0 70 -41
70 -85 0 -18 -9 -61 -20 -95 -38 -121 -17 -235 60 -323 46 -52 116 -90 157
-85 l28 3 -2 84 c-5 185 -77 359 -211 516 -29 33 -59 79 -69 103 -15 41 -15
48 5 145 12 56 24 125 28 152 8 70 -11 194 -45 289 -107 300 -101 276 -112
428 -12 171 -29 246 -71 310 -55 87 -157 124 -260 95z m142 -75 c108 -80 163
-291 121 -462 l-13 -56 45 -64 c84 -122 107 -185 127 -355 14 -121 0 -272 -37
-389 -65 -206 -140 -289 -355 -396 -212 -105 -279 -125 -413 -124 -92 0 -124
5 -195 28 -90 30 -270 110 -270 121 0 3 14 23 31 45 17 21 34 55 39 76 17 74
-30 236 -91 312 -45 57 -47 71 -18 98 54 48 152 222 184 324 10 32 19 107 22
181 6 126 6 127 -24 187 -21 41 -27 64 -21 75 15 28 245 87 338 87 41 0 43 2
143 128 88 111 256 218 327 208 19 -3 46 -14 60 -24z m-1310 -368 c30 -14 66
-35 78 -47 51 -47 68 -117 42 -168 -18 -34 -80 -98 -113 -115 -25 -13 -31 -14
-51 -1 -48 32 -116 198 -116 283 0 76 61 94 160 48z"/>
<path d="M1505 2061 c-84 -38 -189 -176 -166 -219 16 -30 204 -114 248 -110
70 6 96 87 73 225 -21 118 -62 147 -155 104z m73 -75 c21 -64 36 -186 25 -197
-19 -19 -174 64 -188 100 -7 17 60 107 94 126 38 21 54 14 69 -29z"/>
<path d="M1542 1233 c-79 -39 -115 -100 -72 -123 17 -9 22 -5 39 28 24 47 61
67 88 47 22 -17 59 -19 69 -4 9 15 -34 56 -66 63 -14 4 -39 -1 -58 -11z"/>
<path d="M1715 1063 c-60 -18 -85 -37 -68 -54 9 -9 26 -8 68 6 90 28 90 74 0
48z"/>
<path d="M834 1021 c-30 -13 -64 -59 -64 -87 0 -35 25 -30 62 12 31 35 34 36
84 30 58 -7 77 5 51 31 -18 18 -103 27 -133 14z"/>
<path d="M1785 975 c-5 -2 -29 -9 -52 -15 -28 -7 -43 -16 -43 -27 0 -12 6 -14
28 -9 15 4 44 9 65 13 27 4 37 10 35 21 -3 16 -16 23 -33 17z"/>
<path d="M1220 941 c-19 -10 -43 -33 -54 -50 -17 -30 -17 -33 -1 -51 9 -10 35
-22 57 -25 45 -8 58 -30 58 -96 0 -102 -70 -139 -154 -83 -31 21 -40 24 -47
13 -29 -46 30 -89 122 -89 43 0 77 20 99 58 20 32 23 34 73 31 98 -4 116 -1
151 34 42 40 56 101 26 117 -29 16 -50 2 -50 -34 0 -40 -9 -52 -44 -66 -40
-15 -81 -4 -106 27 -27 34 -25 70 5 127 30 57 32 82 6 96 -31 16 -103 12 -141
-9z"/>
<path d="M1712 813 c2 -11 13 -19 28 -19 14 -1 37 -5 51 -8 17 -5 30 -2 38 8
17 21 -14 36 -74 36 -39 0 -46 -3 -43 -17z"/>
<path d="M804 785 c-45 -26 -64 -55 -38 -55 8 0 38 10 65 21 34 15 49 27 49
40 0 26 -27 24 -76 -6z"/>
<path d="M824 690 c-32 -13 -56 -50 -43 -67 9 -10 16 -10 38 1 14 8 38 17 54
21 29 6 35 23 15 43 -14 14 -34 14 -64 2z"/>
<path d="M839 558 c-16 -18 -28 -37 -26 -43 7 -19 37 -17 63 4 15 12 33 21 40
21 23 0 16 37 -8 44 -35 9 -37 8 -69 -26z"/>
<path d="M525 780 c-18 -29 46 -100 71 -79 11 9 11 16 -1 40 -9 15 -24 33 -34
39 -24 12 -28 13 -36 0z"/>
<path d="M405 731 c-7 -12 43 -86 58 -86 23 0 18 38 -9 66 -29 31 -39 35 -49
20z"/>
<path d="M290 671 c0 -6 4 -13 10 -16 5 -3 13 -20 18 -38 9 -36 35 -43 40 -11
3 24 -33 74 -54 74 -8 0 -14 -4 -14 -9z"/>
</g>
</svg>
